<mxfile host="app.diagrams.net" modified="2022-06-04T14:26:25.797Z" agent="5.0 (Windows NT 10.0; Win64; x64) AppleWebKit/537.36 (KHTML, like Gecko) Chrome/85.0.4183.121 Safari/537.36 OPR/71.0.3770.271" etag="tPfzM6BtzLVCtLWvkL01" version="18.1.1" type="github">
  <diagram id="m_Y5xVD9ZGCtd96Jv5cy" name="Page-1">
    <mxGraphModel dx="1843" dy="1060" grid="1" gridSize="10" guides="1" tooltips="1" connect="1" arrows="1" fold="1" page="1" pageScale="1" pageWidth="827" pageHeight="1169" math="0" shadow="0">
      <root>
        <mxCell id="0" />
        <mxCell id="1" parent="0" />
        <mxCell id="zzLUtJSfL5fbQFalBaQW-16" style="edgeStyle=orthogonalEdgeStyle;rounded=0;orthogonalLoop=1;jettySize=auto;html=1;startArrow=diamond;startFill=1;endArrow=none;endFill=0;endSize=10;startSize=10;" edge="1" parent="1" source="zzLUtJSfL5fbQFalBaQW-1" target="zzLUtJSfL5fbQFalBaQW-6">
          <mxGeometry relative="1" as="geometry">
            <Array as="points">
              <mxPoint x="329" y="290" />
              <mxPoint x="329" y="290" />
            </Array>
          </mxGeometry>
        </mxCell>
        <mxCell id="zzLUtJSfL5fbQFalBaQW-1" value="Пользователь" style="swimlane;fontStyle=0;childLayout=stackLayout;horizontal=1;startSize=26;fillColor=none;horizontalStack=0;resizeParent=1;resizeParentMax=0;resizeLast=0;collapsible=1;marginBottom=0;" vertex="1" parent="1">
          <mxGeometry x="59" y="230" width="140" height="130" as="geometry" />
        </mxCell>
        <mxCell id="zzLUtJSfL5fbQFalBaQW-2" value="Ник    " style="text;strokeColor=none;fillColor=none;align=left;verticalAlign=top;spacingLeft=4;spacingRight=4;overflow=hidden;rotatable=0;points=[[0,0.5],[1,0.5]];portConstraint=eastwest;" vertex="1" parent="zzLUtJSfL5fbQFalBaQW-1">
          <mxGeometry y="26" width="140" height="26" as="geometry" />
        </mxCell>
        <mxCell id="zzLUtJSfL5fbQFalBaQW-3" value="Адрес почты" style="text;strokeColor=none;fillColor=none;align=left;verticalAlign=top;spacingLeft=4;spacingRight=4;overflow=hidden;rotatable=0;points=[[0,0.5],[1,0.5]];portConstraint=eastwest;" vertex="1" parent="zzLUtJSfL5fbQFalBaQW-1">
          <mxGeometry y="52" width="140" height="26" as="geometry" />
        </mxCell>
        <mxCell id="zzLUtJSfL5fbQFalBaQW-4" value="Пароль" style="text;strokeColor=none;fillColor=none;align=left;verticalAlign=top;spacingLeft=4;spacingRight=4;overflow=hidden;rotatable=0;points=[[0,0.5],[1,0.5]];portConstraint=eastwest;" vertex="1" parent="zzLUtJSfL5fbQFalBaQW-1">
          <mxGeometry y="78" width="140" height="26" as="geometry" />
        </mxCell>
        <mxCell id="zzLUtJSfL5fbQFalBaQW-5" value="Аватар" style="text;strokeColor=none;fillColor=none;align=left;verticalAlign=top;spacingLeft=4;spacingRight=4;overflow=hidden;rotatable=0;points=[[0,0.5],[1,0.5]];portConstraint=eastwest;" vertex="1" parent="zzLUtJSfL5fbQFalBaQW-1">
          <mxGeometry y="104" width="140" height="26" as="geometry" />
        </mxCell>
        <mxCell id="zzLUtJSfL5fbQFalBaQW-23" style="edgeStyle=orthogonalEdgeStyle;rounded=0;orthogonalLoop=1;jettySize=auto;html=1;startArrow=diamond;startFill=1;endArrow=none;endFill=0;startSize=10;endSize=10;" edge="1" parent="1" source="zzLUtJSfL5fbQFalBaQW-6" target="zzLUtJSfL5fbQFalBaQW-18">
          <mxGeometry relative="1" as="geometry">
            <Array as="points">
              <mxPoint x="629" y="295" />
              <mxPoint x="629" y="295" />
            </Array>
          </mxGeometry>
        </mxCell>
        <mxCell id="zzLUtJSfL5fbQFalBaQW-25" style="edgeStyle=orthogonalEdgeStyle;rounded=0;orthogonalLoop=1;jettySize=auto;html=1;startArrow=diamond;startFill=0;endArrow=none;endFill=0;startSize=10;endSize=10;" edge="1" parent="1" source="zzLUtJSfL5fbQFalBaQW-6" target="zzLUtJSfL5fbQFalBaQW-1">
          <mxGeometry relative="1" as="geometry">
            <Array as="points">
              <mxPoint x="259" y="310" />
              <mxPoint x="259" y="310" />
            </Array>
          </mxGeometry>
        </mxCell>
        <mxCell id="zzLUtJSfL5fbQFalBaQW-6" value="Чат" style="swimlane;fontStyle=0;childLayout=stackLayout;horizontal=1;startSize=26;fillColor=none;horizontalStack=0;resizeParent=1;resizeParentMax=0;resizeLast=0;collapsible=1;marginBottom=0;" vertex="1" parent="1">
          <mxGeometry x="359" y="256" width="140" height="78" as="geometry" />
        </mxCell>
        <mxCell id="zzLUtJSfL5fbQFalBaQW-7" value="Название" style="text;strokeColor=none;fillColor=none;align=left;verticalAlign=top;spacingLeft=4;spacingRight=4;overflow=hidden;rotatable=0;points=[[0,0.5],[1,0.5]];portConstraint=eastwest;" vertex="1" parent="zzLUtJSfL5fbQFalBaQW-6">
          <mxGeometry y="26" width="140" height="26" as="geometry" />
        </mxCell>
        <mxCell id="zzLUtJSfL5fbQFalBaQW-8" value="Участники" style="text;strokeColor=none;fillColor=none;align=left;verticalAlign=top;spacingLeft=4;spacingRight=4;overflow=hidden;rotatable=0;points=[[0,0.5],[1,0.5]];portConstraint=eastwest;" vertex="1" parent="zzLUtJSfL5fbQFalBaQW-6">
          <mxGeometry y="52" width="140" height="26" as="geometry" />
        </mxCell>
        <mxCell id="zzLUtJSfL5fbQFalBaQW-30" style="edgeStyle=orthogonalEdgeStyle;rounded=0;orthogonalLoop=1;jettySize=auto;html=1;startArrow=diamond;startFill=0;endArrow=none;endFill=0;startSize=10;endSize=10;" edge="1" parent="1" source="zzLUtJSfL5fbQFalBaQW-11" target="zzLUtJSfL5fbQFalBaQW-1">
          <mxGeometry relative="1" as="geometry">
            <Array as="points">
              <mxPoint x="170" y="400" />
              <mxPoint x="170" y="400" />
            </Array>
          </mxGeometry>
        </mxCell>
        <mxCell id="zzLUtJSfL5fbQFalBaQW-11" value="Список друзей" style="swimlane;fontStyle=0;childLayout=stackLayout;horizontal=1;startSize=26;fillColor=none;horizontalStack=0;resizeParent=1;resizeParentMax=0;resizeLast=0;collapsible=1;marginBottom=0;" vertex="1" parent="1">
          <mxGeometry x="59" y="480" width="140" height="52" as="geometry" />
        </mxCell>
        <mxCell id="zzLUtJSfL5fbQFalBaQW-15" value="Друзья" style="text;strokeColor=none;fillColor=none;align=left;verticalAlign=top;spacingLeft=4;spacingRight=4;overflow=hidden;rotatable=0;points=[[0,0.5],[1,0.5]];portConstraint=eastwest;" vertex="1" parent="zzLUtJSfL5fbQFalBaQW-11">
          <mxGeometry y="26" width="140" height="26" as="geometry" />
        </mxCell>
        <mxCell id="zzLUtJSfL5fbQFalBaQW-17" value="0..*" style="text;html=1;align=center;verticalAlign=middle;resizable=0;points=[];autosize=1;strokeColor=none;fillColor=none;" vertex="1" parent="1">
          <mxGeometry x="329" y="270" width="30" height="20" as="geometry" />
        </mxCell>
        <mxCell id="zzLUtJSfL5fbQFalBaQW-18" value="Сообщение" style="swimlane;fontStyle=0;childLayout=stackLayout;horizontal=1;startSize=26;fillColor=none;horizontalStack=0;resizeParent=1;resizeParentMax=0;resizeLast=0;collapsible=1;marginBottom=0;" vertex="1" parent="1">
          <mxGeometry x="640" y="256" width="140" height="78" as="geometry" />
        </mxCell>
        <mxCell id="zzLUtJSfL5fbQFalBaQW-19" value="Чат" style="text;strokeColor=none;fillColor=none;align=left;verticalAlign=top;spacingLeft=4;spacingRight=4;overflow=hidden;rotatable=0;points=[[0,0.5],[1,0.5]];portConstraint=eastwest;" vertex="1" parent="zzLUtJSfL5fbQFalBaQW-18">
          <mxGeometry y="26" width="140" height="26" as="geometry" />
        </mxCell>
        <mxCell id="zzLUtJSfL5fbQFalBaQW-20" value="Отправитель" style="text;strokeColor=none;fillColor=none;align=left;verticalAlign=top;spacingLeft=4;spacingRight=4;overflow=hidden;rotatable=0;points=[[0,0.5],[1,0.5]];portConstraint=eastwest;" vertex="1" parent="zzLUtJSfL5fbQFalBaQW-18">
          <mxGeometry y="52" width="140" height="26" as="geometry" />
        </mxCell>
        <mxCell id="zzLUtJSfL5fbQFalBaQW-24" value="0..*" style="text;html=1;align=center;verticalAlign=middle;resizable=0;points=[];autosize=1;strokeColor=none;fillColor=none;" vertex="1" parent="1">
          <mxGeometry x="610" y="270" width="30" height="20" as="geometry" />
        </mxCell>
        <mxCell id="zzLUtJSfL5fbQFalBaQW-26" value="2..*" style="text;html=1;align=center;verticalAlign=middle;resizable=0;points=[];autosize=1;strokeColor=none;fillColor=none;" vertex="1" parent="1">
          <mxGeometry x="199" y="310" width="30" height="20" as="geometry" />
        </mxCell>
        <mxCell id="zzLUtJSfL5fbQFalBaQW-29" style="edgeStyle=orthogonalEdgeStyle;rounded=0;orthogonalLoop=1;jettySize=auto;html=1;startArrow=diamond;startFill=1;endArrow=none;endFill=0;startSize=10;endSize=10;" edge="1" parent="1" source="zzLUtJSfL5fbQFalBaQW-1" target="zzLUtJSfL5fbQFalBaQW-11">
          <mxGeometry relative="1" as="geometry">
            <Array as="points">
              <mxPoint x="100" y="400" />
              <mxPoint x="100" y="400" />
            </Array>
          </mxGeometry>
        </mxCell>
        <mxCell id="zzLUtJSfL5fbQFalBaQW-31" value="0..*" style="text;html=1;align=center;verticalAlign=middle;resizable=0;points=[];autosize=1;strokeColor=none;fillColor=none;" vertex="1" parent="1">
          <mxGeometry x="169" y="360" width="30" height="20" as="geometry" />
        </mxCell>
        <mxCell id="zzLUtJSfL5fbQFalBaQW-32" value="1" style="text;html=1;align=center;verticalAlign=middle;resizable=0;points=[];autosize=1;strokeColor=none;fillColor=none;" vertex="1" parent="1">
          <mxGeometry x="100" y="460" width="20" height="20" as="geometry" />
        </mxCell>
      </root>
    </mxGraphModel>
  </diagram>
</mxfile>
